<?xml version="1.0" encoding="UTF-8" standalone="no"?>
<svg
   width="71"
   height="54.117622"
   viewBox="0 0 71 54.117622"
   fill="none"
   version="1.1"
   id="svg1"
   sodipodi:docname="discord-icon.svg"
   inkscape:version="1.4.3 (0d15f75, 2025-12-25)"
   xmlns:inkscape="http://www.inkscape.org/namespaces/inkscape"
   xmlns:sodipodi="http://sodipodi.sourceforge.net/DTD/sodipodi-0.dtd"
   xmlns="http://www.w3.org/2000/svg"
   xmlns:svg="http://www.w3.org/2000/svg">
  <defs
     id="defs1" />
  <sodipodi:namedview
     id="namedview1"
     pagecolor="#ffffff"
     bordercolor="#000000"
     borderopacity="0.25"
     inkscape:showpageshadow="2"
     inkscape:pageopacity="0.0"
     inkscape:pagecheckerboard="0"
     inkscape:deskcolor="#d1d1d1"
     inkscape:zoom="2.3896373"
     inkscape:cx="36.825673"
     inkscape:cy="47.078275"
     inkscape:window-width="1470"
     inkscape:window-height="894"
     inkscape:window-x="0"
     inkscape:window-y="34"
     inkscape:window-maximized="1"
     inkscape:current-layer="svg1" />
  <path
     d="m 60.1045,4.4860554 c -4.5253,-2.0764 -9.378,-3.6062 -14.4518,-4.48238 -0.0924,-0.01691 -0.1847,0.02535 -0.2323,0.10987 -0.6241,1.11001 -1.3154,2.55811 -1.7995,3.69631 -5.4572,-0.817 -10.8864,-0.817 -16.2317,0 -0.4842,-1.1635 -1.2006,-2.5863 -1.8275,-3.69631 -0.0476,-0.0817 -0.1399,-0.12396 -0.2323,-0.10987 -5.071,0.87338 -9.9237,2.40318 -14.4518,4.48238 -0.0392,0.0169 -0.0728,0.0451 -0.0951,0.0817 C 1.5779499,18.319155 -0.94356111,31.732555 0.29340789,44.979655 c 0.005597,0.0648 0.041978,0.1268 0.092353,0.1662 6.07289901,4.4598 11.95553911,7.1673 17.72893911,8.9619 0.0924,0.0282 0.1903,-0.0056 0.2491,-0.0817 1.3657,-1.865 2.5831,-3.8315 3.6269,-5.8995 0.0616,-0.1211 0.0028,-0.2648 -0.1231,-0.3127 -1.931,-0.7325 -3.7697,-1.6256 -5.5384,-2.6398 -0.1399,-0.0817 -0.1511,-0.2818 -0.0224,-0.3776 0.3722,-0.2789 0.7445,-0.5691 1.0999,-0.8621 0.0643,-0.0535 0.1539,-0.0648 0.2295,-0.031 11.6196,5.3051 24.1992,5.3051 35.6817,0 0.0756,-0.0366 0.1652,-0.0253 0.2323,0.0282 0.3555,0.293 0.7277,0.586 1.1027,0.8649 0.1287,0.0958 0.1203,0.2959 -0.0196,0.3776 -1.7687,1.0339 -3.6074,1.9073 -5.5412,2.637 -0.1259,0.0479 -0.1819,0.1944 -0.1203,0.3155 1.0662,2.0651 2.2836,4.0316 3.6241,5.8967 0.056,0.0789 0.1567,0.1127 0.2491,0.0845 5.8014,-1.7946 11.684,-4.5021 17.7569,-8.9619 0.0532,-0.0394 0.0868,-0.0986 0.0924,-0.1634 1.4804,-15.3151 -2.4796,-28.6185 -10.4975,-40.4118996 -0.0196,-0.0394 -0.0531,-0.0676 -0.0923,-0.0845 z M 23.7259,36.913555 c -3.4983,0 -6.3808,-3.2117 -6.3808,-7.156 0,-3.9443 2.8266,-7.156 6.3808,-7.156 3.5821,0 6.4367,3.2399 6.3807,7.156 0,3.9443 -2.8266,7.156 -6.3807,7.156 z m 23.5919,0 c -3.4982,0 -6.3807,-3.2117 -6.3807,-7.156 0,-3.9443 2.8265,-7.156 6.3807,-7.156 3.5822,0 6.4367,3.2399 6.3808,7.156 0,3.9443 -2.7986,7.156 -6.3808,7.156 z"
     fill="#5865F2"
     id="path1"
     style="fill:#ffffff;fill-opacity:1" />
</svg>
