<?xml version="1.0" encoding="UTF-8" standalone="no"?>
<svg
   width="743.60693"
   height="743.06268"
   viewBox="0 0 196.74598 196.60198"
   inkscape:version="1.4.3 (0d15f75, 2025-12-25)"
   sodipodi:docname="Instagram_logo_2022.svg"
   version="1.1"
   id="svg15"
   xmlns:inkscape="http://www.inkscape.org/namespaces/inkscape"
   xmlns:sodipodi="http://sodipodi.sourceforge.net/DTD/sodipodi-0.dtd"
   xmlns:xlink="http://www.w3.org/1999/xlink"
   xmlns="http://www.w3.org/2000/svg"
   xmlns:svg="http://www.w3.org/2000/svg">
  <defs
     id="defs11">
    <radialGradient
       id="f"
       cx="158.429"
       cy="578.08801"
       r="52.351501"
       xlink:href="#a"
       gradientUnits="userSpaceOnUse"
       gradientTransform="matrix(0,-4.03418,4.28018,0,-2332.2273,942.2356)"
       fx="158.429"
       fy="578.08801" />
    <linearGradient
       id="c">
      <stop
         offset="0"
         stop-color="#780cff"
         id="stop3" />
      <stop
         stop-color="#820bff"
         offset="1"
         stop-opacity="0"
         id="stop4" />
    </linearGradient>
    <linearGradient
       id="a">
      <stop
         offset="0"
         stop-color="#fc0"
         id="stop7" />
      <stop
         offset=".1242"
         stop-color="#fc0"
         id="stop8" />
      <stop
         offset=".5672"
         stop-color="#fe4a05"
         id="stop9" />
      <stop
         offset=".6942"
         stop-color="#ff0f3f"
         id="stop10" />
      <stop
         offset="1"
         stop-color="#fe0657"
         stop-opacity="0"
         id="stop11" />
    </linearGradient>
  </defs>
  <sodipodi:namedview
     pagecolor="#ffffff"
     bordercolor="#666666"
     borderopacity="1"
     inkscape:pageopacity="0"
     inkscape:pageshadow="2"
     inkscape:zoom="0.515"
     inkscape:cx="372.81553"
     inkscape:cy="371.84466"
     inkscape:document-units="mm"
     inkscape:current-layer="g15"
     inkscape:document-rotation="0"
     showgrid="false"
     inkscape:window-width="1470"
     inkscape:window-height="894"
     inkscape:window-x="0"
     inkscape:window-y="34"
     inkscape:window-maximized="1"
     id="namedview11"
     inkscape:showpageshadow="2"
     inkscape:pagecheckerboard="0"
     inkscape:deskcolor="#d1d1d1" />
  <g
     inkscape:label="Layer 1"
     inkscape:groupmode="layer"
     id="g15"
     transform="translate(-33.963,-33.973)">
    <path
       d="m 132.3452,33.973 c -26.7167,0 -30.0696,0.1167 -40.5629,0.5939 -10.4727,0.4792 -17.6212,2.136 -23.8762,4.567 -6.4701,2.5107 -11.9586,5.8693 -17.4265,11.3352 -5.472,5.464 -8.8332,10.9483 -11.354,17.4116 -2.4389,6.2524 -4.099,13.3976 -4.5703,23.8585 -0.4693,10.4854 -0.5923,13.8379 -0.5923,40.5348 0,26.697 0.1189,30.0371 0.5943,40.5225 0.4817,10.465 2.1397,17.6082 4.5703,23.8585 2.5147,6.4654 5.8758,11.9497 11.3458,17.4136 5.466,5.468 10.9544,8.8349 17.4204,11.3456 6.259,2.4309 13.4097,4.0877 23.8803,4.567 10.4933,0.477 13.8441,0.5938 40.5588,0.5938 26.7188,0 30.0615,-0.1167 40.5547,-0.5939 10.4728,-0.4792 17.6295,-2.136 23.8885,-4.567 6.4681,-2.5106 11.9484,-5.8775 17.4143,-11.3455 5.472,-5.4639 8.8332,-10.9482 11.354,-17.4115 2.4183,-6.2524 4.0784,-13.3976 4.5703,-23.8585 0.4713,-10.4854 0.5943,-13.8277 0.5943,-40.5246 0,-26.697 -0.123,-30.0473 -0.5943,-40.5328 -0.4919,-10.465 -2.152,-17.6081 -4.5703,-23.8584 -2.5208,-6.4654 -5.882,-11.9498 -11.354,-17.4137 C 208.7183,45.0011 203.2462,41.6425 196.77,39.1338 190.4986,36.7029 183.346,35.0461 172.8733,34.5669 162.38,34.0897 159.0394,33.973 132.3145,33.973 Z m -8.825,17.7147 c 2.6193,-0.0041 5.5418,0 8.825,0 26.2659,0 29.379,0.0942 39.7513,0.5652 9.5915,0.4383 14.7971,2.0397 18.2648,3.3852 4.5908,1.7817 7.8638,3.9116 11.3048,7.3521 3.4431,3.4406 5.5745,6.7173 7.3617,11.3046 1.3465,3.461 2.9512,8.6628 3.3877,18.2472 0.4714,10.3625 0.5739,13.4754 0.5739,39.7095 0,26.234 -0.1025,29.347 -0.5739,39.7095 -0.4386,9.5843 -2.0412,14.7861 -3.3877,18.2471 -1.783,4.5874 -3.9186,7.8539 -7.3617,11.2923 -3.443,3.4406 -6.712,5.5704 -11.3048,7.3521 -3.4636,1.3517 -8.6733,2.949 -18.2648,3.3873 -10.3702,0.471 -13.4854,0.5734 -39.7513,0.5734 -26.2679,0 -29.381,-0.1024 -39.7513,-0.5734 -9.5914,-0.4423 -14.797,-2.0438 -18.2668,-3.3893 -4.5908,-1.7817 -7.87,-3.9116 -11.313,-7.3521 -3.4431,-3.4405 -5.5745,-6.709 -7.3617,-11.2985 -1.3465,-3.461 -2.9512,-8.6628 -3.3877,-18.2471 -0.4714,-10.3626 -0.5657,-13.4754 -0.5657,-39.7259 0,-26.2504 0.0943,-29.347 0.5657,-39.7095 0.4386,-9.5844 2.0412,-14.7861 3.3877,-18.2512 1.783,-4.5874 3.9186,-7.8641 7.3617,-11.3046 3.443,-3.4406 6.7222,-5.5704 11.313,-7.3562 3.4677,-1.3517 8.6754,-2.949 18.2668,-3.3894 9.075,-0.4096 12.5919,-0.5324 30.9264,-0.553 z m 61.3363,16.322 c -6.5173,0 -11.805,5.2776 -11.805,11.792 0,6.5125 5.2877,11.7962 11.805,11.7962 6.5172,0 11.8049,-5.2837 11.8049,-11.7962 0,-6.5124 -5.2877,-11.796 -11.805,-11.796 z m -52.5113,13.7826 c -27.8993,0 -50.5191,22.6031 -50.5191,50.4817 0,27.8786 22.6198,50.4714 50.5191,50.4714 27.8993,0 50.511,-22.5928 50.511,-50.4714 0,-27.8786 -22.6137,-50.4817 -50.513,-50.4817 z m 0,17.7147 c 18.109,0 32.7914,14.6694 32.7914,32.767 0,18.0956 -14.6824,32.767 -32.7914,32.767 -18.111,0 -32.7913,-14.6714 -32.7913,-32.767 0,-18.0976 14.6803,-32.767 32.7913,-32.767 z"
       inkscape:connector-curvature="0"
       fill="#ffffff"
       id="path15"
       style="display:inline;fill:#ffffff;fill-opacity:1" />
  </g>
</svg>
