<?xml version="1.0" encoding="UTF-8" standalone="no"?>
<svg
   width="61.076954mm"
   height="65.47831mm"
   viewBox="0 0 216.4144 232.00976"
   version="1.1"
   id="svg2"
   sodipodi:docname="mastodon-icon.svg"
   inkscape:version="1.4.3 (0d15f75, 2025-12-25)"
   xmlns:inkscape="http://www.inkscape.org/namespaces/inkscape"
   xmlns:sodipodi="http://sodipodi.sourceforge.net/DTD/sodipodi-0.dtd"
   xmlns="http://www.w3.org/2000/svg"
   xmlns:svg="http://www.w3.org/2000/svg">
  <defs
     id="defs2" />
  <sodipodi:namedview
     id="namedview2"
     pagecolor="#ffffff"
     bordercolor="#000000"
     borderopacity="0.25"
     inkscape:showpageshadow="2"
     inkscape:pageopacity="0.0"
     inkscape:pagecheckerboard="0"
     inkscape:deskcolor="#d1d1d1"
     inkscape:document-units="mm"
     inkscape:zoom="1.5411572"
     inkscape:cx="40.229511"
     inkscape:cy="86.623221"
     inkscape:window-width="1470"
     inkscape:window-height="894"
     inkscape:window-x="0"
     inkscape:window-y="34"
     inkscape:window-maximized="0"
     inkscape:current-layer="svg2" />
  <path
     id="path1"
     d="M 107.8656 0 C 78.20435 0.2425 49.672544 3.4544482 33.045044 11.090698 C 33.045044 11.090698 0.067749023 25.841875 0.067749023 76.171875 C 0.067749023 87.696875 -0.15625977 101.47695 0.20874023 116.0907 C 1.4062402 165.3107 9.2318796 213.81926 54.73938 225.86426 C 75.72188 231.41801 93.737709 232.58156 108.24646 231.78406 C 134.55771 230.32531 149.328 222.39441 149.328 222.39441 L 148.46008 203.30383 C 148.46008 203.30383 129.65751 209.23202 108.54126 208.50952 C 87.620009 207.79202 65.533408 206.25388 62.149658 180.56763 C 61.837158 178.31138 61.680908 175.89801 61.680908 173.36426 C 61.680908 173.36426 82.218959 178.38453 108.24646 179.57703 C 124.16146 180.30703 139.08563 178.64469 154.24438 176.83594 C 183.31438 173.36469 208.626 155.45316 211.80725 139.08691 C 216.81975 113.30566 216.40686 76.171875 216.40686 76.171875 C 216.40686 25.841875 183.4314 11.090698 183.4314 11.090698 C 166.80515 3.4544482 138.25561 0.2425 108.59436 0 L 107.8656 0 z M 74.296875 39.325561 C 86.651875 39.325561 96.006743 44.074248 102.19299 53.572998 L 108.20801 63.654785 L 114.22302 53.572998 C 120.40802 44.074248 129.76289 39.325561 142.11914 39.325561 C 152.79664 39.325561 161.39997 43.079111 167.96997 50.401611 C 174.33872 57.724111 177.50976 67.622514 177.50976 80.077514 L 177.50976 141.01868 L 153.36548 141.01868 L 153.36548 81.868286 C 153.36548 69.399536 148.11948 63.070678 137.62573 63.070678 C 126.02323 63.070678 120.20874 70.577363 120.20874 85.422363 L 120.20874 117.79907 L 96.207275 117.79907 L 96.207275 85.422363 C 96.207275 70.577363 90.390952 63.070678 78.788452 63.070678 C 68.294702 63.070678 63.048706 69.399536 63.048706 81.868286 L 63.048706 141.01868 L 38.904419 141.01868 L 38.904419 80.077514 C 38.904419 67.622514 42.076045 57.724111 48.446045 50.401611 C 55.014795 43.079111 63.618125 39.325561 74.296875 39.325561 z "
     style="fill:#ffffff;fill-opacity:1" />
</svg>
