<?xml version="1.0" encoding="UTF-8" standalone="no"?>
<svg
   xml:space="preserve"
   viewBox="0 0 246.14999 200.01262"
   version="1.1"
   id="svg1"
   sodipodi:docname="Logo_of_Twitter.svg"
   width="246.14999"
   height="200.01262"
   inkscape:version="1.4.3 (0d15f75, 2025-12-25)"
   xmlns:inkscape="http://www.inkscape.org/namespaces/inkscape"
   xmlns:sodipodi="http://sodipodi.sourceforge.net/DTD/sodipodi-0.dtd"
   xmlns="http://www.w3.org/2000/svg"
   xmlns:svg="http://www.w3.org/2000/svg"><defs
   id="defs1" /><sodipodi:namedview
   id="namedview1"
   pagecolor="#ffffff"
   bordercolor="#000000"
   borderopacity="0.25"
   inkscape:showpageshadow="2"
   inkscape:pageopacity="0.0"
   inkscape:pagecheckerboard="0"
   inkscape:deskcolor="#d1d1d1"
   inkscape:zoom="0.45879857"
   inkscape:cx="333.47968"
   inkscape:cy="175.45826"
   inkscape:window-width="1470"
   inkscape:window-height="894"
   inkscape:window-x="0"
   inkscape:window-y="34"
   inkscape:window-maximized="1"
   inkscape:current-layer="svg1" />
  <path
   fill="#1d9bf0"
   d="m 220.95,49.792624 c 0.15,2.17 0.15,4.34 0.15,6.53 0,66.729996 -50.8,143.689996 -143.69,143.689996 v -0.04 c -27.44,0.04 -54.31,-7.82 -77.41,-22.64 3.99,0.48 8,0.72 12.02,0.73 22.74,0.02 44.83,-7.61 62.72,-21.66 -21.61,-0.41 -40.56,-14.5 -47.18,-35.07 7.57,1.46 15.37,1.16 22.8,-0.87 C 26.8,115.70262 9.85,95.002624 9.85,70.962624 v -0.64 c 7.02,3.91 14.88,6.08 22.92,6.32 -22.19,-14.83 -29.03,-44.35 -15.63,-67.4299996 25.64,31.5499996 63.47,50.7299996 104.08,52.7599996 -4.07,-17.54 1.49,-35.92 14.61,-48.25 20.34,-19.1199996 52.33,-18.1399996 71.45,2.19 11.31,-2.23 22.15,-6.3799996 32.07,-12.2599996 -3.77,11.6899996 -11.66,21.6199996 -22.2,27.9299996 10.01,-1.18 19.79,-3.86 29,-7.95 -6.78,10.16 -15.32,19.01 -25.2,26.16 z"
   id="path1"
   style="fill:#ffffff;fill-opacity:1" />
</svg>
